<svg xmlns="http://www.w3.org/2000/svg" width="32" height="32" viewBox="0 0 32 32">
    <path fill="#526069" fill-rule="nonzero" d="M16.5 29C11.262 29 7 24.795 7 19.625v-4.687h19v4.687C26 24.795 21.738 29 16.5 29zM8.583 16.5v3.125c0 4.308 3.552 7.812 7.917 7.812s7.917-3.504 7.917-7.812V16.5H8.583zm7.917 8.594c-1.303 0-2.364-1.04-2.375-2.324v-1.583c0-1.292 1.065-2.343 2.375-2.343s2.375 1.051 2.375 2.343v1.583c-.01 1.283-1.072 2.324-2.375 2.324zm0-4.688a.787.787 0 0 0-.792.781v1.563c0 .431.356.781.792.781.436 0 .792-.35.792-.781v-1.563a.787.787 0 0 0-.792-.78zm6.333-7.031H21.25v-3.37c0-2.45-2.13-4.442-4.75-4.442s-4.75 1.992-4.75 4.441v3.371h-1.583v-3.37C10.167 6.692 13.007 4 16.5 4c3.492 0 6.333 2.693 6.333 6.004v3.371z"/>
</svg>
